#!OML:ASF H:\Dans Jumps\Project 1\Capture day 1\Session 1\subject.ASF
:FULLY-SPECIFIED
:DEGREES
283
root 0.564912 16.2632 -14.7183 11.2317 -2.73864 -2.05945
lowerback 9.46873 -0.31636 0.149471
upperback 6.14031 -0.413375 2.01865
thorax 1.07761 -0.242823 2.03609
lowerneck -15.2709 1.48472 -1.69379
upperneck 21.9721 2.72587 -0.982198
head 9.44839 1.0079 0.284412
rclavicle -1.2424e-014 1.80894e-014
rhumerus -34.8922 -16.033 -74.344
rradius 26.135
rwrist 29.3939
rhand -17.9246 -25.853
rfingers 7.12502
rthumb 8.34308 -55.6682
lclavicle -1.2424e-014 1.80894e-014
lhumerus -32.4642 -2.14739 88.3554
lradius 19.7531
lwrist 11.2948
lhand -25.522 -3.23219
lfingers 7.12502
lthumb 1.00741 26.7452
rfemur -38.771 -0.613504 21.1005
rtibia 54.2917
rfoot -28.0312 -9.58755
rtoes 4.63659
lfemur -38.2205 8.86511 -19.9343
ltibia 53.8779
lfoot -25.3163 15.6967
ltoes -9.02935
284
root 0.563948 16.2546 -14.705 11.4961 -2.66072 -2.06309
lowerback 9.58962 -0.333108 0.133439
upperback 6.05582 -0.433149 2.03532
thorax 0.924499 -0.252272 2.06526
lowerneck -15.3636 1.48561 -1.67322
upperneck 21.8319 2.72569 -1.00095
head 9.41723 1.00908 0.274608
rclavicle 6.55989e-015 5.36719e-015
rhumerus -34.9391 -16.0263 -74.3139
rradius 26.0876
rwrist 29.468
rhand -17.8978 -25.8525
rfingers 7.12502
rthumb 8.36899 -55.6667
lclavicle 6.55989e-015 5.36719e-015
lhumerus -32.5038 -2.01107 88.2811
lradius 19.7005
lwrist 11.1939
lhand -25.4819 -3.19901
lfingers 7.12502
lthumb 1.04614 26.7782
rfemur -39.1041 -0.680064 21.1299
rtibia 54.5067
rfoot -28.3302 -9.9049
rtoes 4.2859
lfemur -38.5701 8.76744 -19.954
ltibia 54.085
lfoot -25.488 15.961
ltoes -9.05641
285
root 0.562599 16.2454 -14.6913 11.7768 -2.56498 -2.06107
lowerback 9.71889 -0.355129 0.112308
upperback 5.95954 -0.459894 2.05283
thorax 0.754948 -0.265133 2.09905
lowerneck -15.4523 1.48739 -1.64532
upperneck 21.6847 2.72647 -1.02779
head 9.38313 1.01053 0.260855
rclavicle -7.45443e-015 5.96354e-015
rhumerus -34.9838 -16.0105 -74.2863
rradius 26.0399
rwrist 29.5264
rhand -17.8617 -25.8538
rfingers 7.12502
rthumb 8.40383 -55.6666
lclavicle -7.45443e-015 5.96354e-015
lhumerus -32.5317 -1.84961 88.191
lradius 19.6277
lwrist 11.0625
lhand -25.4376 -3.17171
lfingers 7.12502
lthumb 1.08894 26.8053
rfemur -39.4568 -0.748633 21.156
rtibia 54.7338
rfoot -28.6301 -10.2187
rtoes 3.97276
lfemur -38.9415 8.64313 -19.9764
ltibia 54.2995
lfoot -25.6535 16.2067
ltoes -9.06713
286
root 0.560908 16.2358 -14.677 12.0738 -2.4537 -2.05789
lowerback 9.85096 -0.382084 0.0898768
upperback 5.85645 -0.49306 2.07294
thorax 0.577155 -0.281103 2.13712
lowerneck -15.5426 1.49048 -1.61725
upperneck 21.528 2.72902 -1.05561
head 9.34606 1.01282 0.246937
rclavicle 2.48481e-015 -7.95139e-016
rhumerus -35.0141 -15.9999 -74.2594
rradius 25.983
rwrist 29.5809
rhand -17.8179 -25.8619
rfingers 7.12502
rthumb 8.44608 -55.673
lclavicle 2.48481e-015 -7.95139e-016
lhumerus -32.5367 -1.65442 88.0826
lradius 19.5303
lwrist 10.8939
lhand -25.3938 -3.15391
lfingers 7.12502
lthumb 1.1312 26.8228
rfemur -39.8306 -0.815277 21.1836
rtibia 54.9736
rfoot -28.9255 -10.5208
rtoes 3.69057
lfemur -39.3356 8.49328 -19.996
ltibia 54.524
lfoot -25.8048 16.45
ltoes -9.03995
287
root 0.55884 16.2251 -14.6625 12.3872 -2.32936 -2.05458
lowerback 9.98785 -0.411831 0.0663113
upperback 5.74516 -0.529751 2.09588
thorax 0.388521 -0.298697 2.17942
lowerneck -15.6398 1.49284 -1.5882
upperneck 21.368 2.73061 -1.08472
head 9.30923 1.01459 0.232361
rclavicle -6.95746e-016 6.36111e-015
rhumerus -35.0318 -15.9881 -74.2362
rradius 25.9213
rwrist 29.6211
rhand -17.7679 -25.8767
rfingers 7.12502
rthumb 8.4943 -55.6859
lclavicle -6.95746e-016 6.36111e-015
lhumerus -32.5224 -1.4318 87.9591
lradius 19.4159
lwrist 10.6954
lhand -25.3546 -3.14089
lfingers 7.12502
lthumb 1.16909 26.8356
rfemur -40.2291 -0.874329 21.2134
rtibia 55.2282
rfoot -29.2124 -10.8036
rtoes 3.43937
lfemur -39.7549 8.31757 -20.0103
ltibia 54.7624
lfoot -25.9444 16.6925
ltoes -8.94781
288
root 0.55644 16.2134 -14.6478 12.7177 -2.19301 -2.04927
lowerback 10.121 -0.444506 0.0426409
upperback 5.63666 -0.570412 2.11858
thorax 0.205131 -0.318193 2.22218
lowerneck -15.7631 1.49854 -1.56024
upperneck 21.203 2.73599 -1.10718
head 9.27539 1.01867 0.220958
rclavicle 5.96354e-016 -4.17448e-015
rhumerus -35.013 -15.9572 -74.2443
rradius 25.8605
rwrist 29.6286
rhand -17.7398 -25.9341
rfingers 7.12502
rthumb 8.52147 -55.7422
lclavicle 5.96354e-016 -4.17448e-015
lhumerus -32.4562 -1.18927 87.8157
lradius 19.2755
lwrist 10.4688
lhand -25.2869 -3.06721
lfingers 7.12502
lthumb 1.23449 26.909
rfemur -40.6551 -0.926782 21.2431
rtibia 55.4988
rfoot -29.483 -11.0556
rtoes 3.23081
lfemur -40.2026 8.11571 -20.0212
ltibia 55.0173
lfoot -26.0744 16.9265
ltoes -8.78933
289
root 0.553741 16.2001 -14.6328 13.0636 -2.04964 -2.0454
lowerback 10.2609 -0.477488 0.0195567
upperback 5.51859 -0.611121 2.14457
thorax 0.00826365 -0.337502 2.26847
lowerneck -15.913 1.5033 -1.53197
upperneck 21.0555 2.74114 -1.13039
head 9.25258 1.02213 0.209574
rclavicle 8.24956e-015 -9.34288e-015
rhumerus -34.9815 -15.9058 -74.267
rradius 25.8009
rwrist 29.61
rhand -17.7206 -26.0213
rfingers 7.12502
rthumb 8.54 -55.8286
lclavicle 8.24956e-015 -9.34288e-015
lhumerus -32.372 -0.933847 87.6665
lradius 19.1205
lwrist 10.2373
lhand -25.2346 -3.01838
lfingers 7.12502
lthumb 1.28503 26.9575
rfemur -41.1089 -0.965838 21.2743
rtibia 55.7879
rfoot -29.7455 -11.2715
rtoes 3.0639
lfemur -40.6785 7.89382 -20.0259
ltibia 55.2924
lfoot -26.1959 17.1482
ltoes -8.61716
290
root 0.550744 16.1853 -14.6176 13.4198 -1.90263 -2.04611
lowerback 10.415 -0.508577 0.00152317
upperback 5.39052 -0.648473 2.17299
thorax -0.2068 -0.354786 2.31471
lowerneck -16.0951 1.50567 -1.50428
upperneck 20.9306 2.74348 -1.14991
head 9.24354 1.02407 0.199629
rclavicle 2.18663e-015 -2.56432e-014
rhumerus -34.9398 -15.8395 -74.3015
rradius 25.7396
rwrist 29.5677
rhand -17.7036 -26.1297
rfingers 7.12502
rthumb 8.55637 -55.9363
lclavicle 2.18663e-015 -2.56432e-014
lhumerus -32.2645 -0.679979 87.5164
lradius 18.9442
lwrist 10.006
lhand -25.1893 -2.96374
lfingers 7.12502
lthumb 1.32869 27.0119
rfemur -41.5854 -0.987468 21.309
rtibia 56.0976
rfoot -30.0068 -11.4506
rtoes 2.95021
lfemur -41.1773 7.65657 -20.0202
ltibia 55.5901
lfoot -26.3151 17.3508
ltoes -8.45738
291
root 0.547439 16.1687 -14.6019 13.7852 -1.75291 -2.04879
lowerback 10.5818 -0.537583 -0.0151084
upperback 5.25145 -0.682502 2.20425
thorax -0.440183 -0.370124 2.36336
lowerneck -16.3136 1.50595 -1.47805
upperneck 20.8364 2.74442 -1.16778
head 9.25179 1.02471 0.190808
rclavicle -4.77083e-015 -4.77083e-015
rhumerus -34.8903 -15.7453 -74.3513
rradius 25.6823
rwrist 29.4893
rhand -17.6905 -26.2323
rfingers 7.12502
rthumb 8.56902 -56.0384
lclavicle -4.77083e-015 -4.77083e-015
lhumerus -32.1324 -0.434052 87.3699
lradius 18.7461
lwrist 9.78003
lhand -25.1459 -2.90775
lfingers 7.12502
lthumb 1.3707 27.0676
rfemur -42.0833 -0.991774 21.3437
rtibia 56.4313
rfoot -30.2745 -11.5996
rtoes 2.86301
lfemur -41.6973 7.4038 -20.0064
ltibia 55.9134
lfoot -26.4353 17.5352
ltoes -8.31471
292
root 0.54376 16.1501 -14.5857 14.1562 -1.60376 -2.05221
lowerback 10.762 -0.562576 -0.0308489
upperback 5.10091 -0.710703 2.23615
thorax -0.692983 -0.382225 2.41223
lowerneck -16.5605 1.50264 -1.45171
upperneck 20.767 2.74061 -1.18186
head 9.27378 1.02299 0.183049
rclavicle -1.2921e-015 -1.43125e-014
rhumerus -34.8348 -15.644 -74.4091
rradius 25.6145
rwrist 29.4252
rhand -17.6871 -26.3133
rfingers 7.12502
rthumb 8.57235 -56.1193
lclavicle -1.2921e-015 -1.43125e-014
lhumerus -31.9708 -0.19012 87.2218
lradius 18.5173
lwrist 9.52766
lhand -25.1057 -2.87543
lfingers 7.12502
lthumb 1.40948 27.0997
rfemur -42.5996 -0.976351 21.3766
rtibia 56.7927
rfoot -30.5498 -11.7341
rtoes 2.76618
lfemur -42.2345 7.13927 -19.9851
ltibia 56.2651
lfoot -26.556 17.7143
ltoes -8.19369
293
root 0.539546 16.1293 -14.5688 14.529 -1.45512 -2.0527
lowerback 10.9541 -0.583849 -0.0514671
upperback 4.94183 -0.734095 2.26872
thorax -0.961154 -0.391704 2.46465
lowerneck -16.8322 1.49541 -1.42815
upperneck 20.7152 2.73234 -1.19309
head 9.30636 1.01885 0.17645
rclavicle 1.82882e-014 -2.32578e-014
rhumerus -34.7709 -15.5224 -74.4795
rradius 25.5396
rwrist 29.374
rhand -17.6999 -26.3656
rfingers 7.12502
rthumb 8.55991 -56.1721
lclavicle 1.82882e-014 -2.32578e-014
lhumerus -31.7641 0.0655269 87.0665
lradius 18.2425
lwrist 9.20923
lhand -25.0537 -2.87224
lfingers 7.12502
lthumb 1.4597 27.1025
rfemur -43.1293 -0.940666 21.404
rtibia 57.185
rfoot -30.8338 -11.8615
rtoes 2.66844
lfemur -42.7846 6.86495 -19.9591
ltibia 56.6475
lfoot -26.6764 17.8985
ltoes -8.08449
294
root 0.534853 16.1061 -14.5507 14.8997 -1.31062 -2.04857
lowerback 11.1558 -0.600172 -0.0779666
upperback 4.77467 -0.751286 2.30025
thorax -1.24312 -0.397835 2.5192
lowerneck -17.1109 1.48387 -1.40896
upperneck 20.6671 2.71802 -1.19847
head 9.34127 1.01212 0.171854
rclavicle -1.32192e-014 2.76311e-014
rhumerus -34.6942 -15.3974 -74.5591
rradius 25.4498
rwrist 29.3518
rhand -17.732 -26.3951
rfingers 7.12502
rthumb 8.529 -56.2028
lclavicle -1.32192e-014 2.76311e-014
lhumerus -31.5086 0.349302 86.8937
lradius 17.9164
lwrist 8.77123
lhand -24.9661 -2.89331
lfingers 7.12502
lthumb 1.54428 27.0808
rfemur -43.6673 -0.886141 21.4239
rtibia 57.6101
rfoot -31.123 -11.9887
rtoes 2.56756
lfemur -43.3418 6.5854 -19.9311
ltibia 57.0634
lfoot -26.7986 18.0978
ltoes -7.98502
295
root 0.529563 16.0804 -14.5313 15.2672 -1.17272 -2.04065
lowerback 11.3684 -0.610827 -0.115808
upperback 4.60026 -0.761906 2.33372
thorax -1.53871 -0.400476 2.58201
lowerneck -17.385 1.46883 -1.40667
upperneck 20.6074 2.69932 -1.18819
head 9.37075 1.00401 0.174735
rclavicle -7.35503e-015 5.36719e-015
rhumerus -34.6001 -15.2546 -74.6523
rradius 25.3626
rwrist 29.3283
rhand -17.7257 -26.4606
rfingers 7.12502
rthumb 8.53506 -56.2681
lclavicle -7.35503e-015 5.36719e-015
lhumerus -31.1955 0.705857 86.6881
lradius 17.5318
lwrist 8.14488
lhand -24.813 -2.91976
lfingers 7.12502
lthumb 1.69216 27.0533
rfemur -44.2131 -0.810638 21.4376
rtibia 58.0678
rfoot -31.4056 -12.1252
rtoes 2.46207
lfemur -43.9062 6.30798 -19.901
ltibia 57.515
lfoot -26.9303 18.3085
ltoes -7.89466
